<svg xmlns="http://www.w3.org/2000/svg"><symbol id="cart-black" viewBox="0 0 64 64"><path fill="#231f20" d="M13.8 15.1h47.6l-7.4 26H23.8l-10-26z"/><circle cx="28.2" cy="55.4" r="4.9" fill="#231f20"/><circle cx="49" cy="55.1" r="4.9" fill="#231f20"/><path fill="none" stroke="#231f20" stroke-miterlimit="10" stroke-width="4.06" d="M-.1 17.4H9l11.1 29h37.3"/></symbol><symbol id="hoodie-black" viewBox="0 0 64 64"><path fill="none" stroke="#231f20" stroke-miterlimit="10" stroke-width="1.74" d="M22.8 11.2l5.9 6.2s7.7-7.4 13.8-6.2c0 0 3.5-12.8-9.9-11.2s-9.8 11.2-9.8 11.2z"/><path fill="none" stroke="#231f20" stroke-miterlimit="10" stroke-width="1.74" d="M28.7 21.7l-4.3-4.9-3.4-3.6s-6.2-10.1-8.5 41.3l3.8 1.3 3.2-27.7v34l27.2 1.8v-3.6h-3.8V24.8l2.7 33.5 3.9.2s6.1-29-3.5-44.4c0 0-9.4-2.9-17.3 7.6z"/><path fill="#231f20" d="M25.3 9.5l4 4.2s5.3-5 9.4-4.2c0 0 2.4-8.7-6.7-7.6s-6.7 7.6-6.7 7.6z"/><path fill="none" stroke="#231f20" stroke-miterlimit="10" stroke-width="1.18" d="M34.4 16.3v7.4"/><path fill="none" stroke="#231f20" stroke-miterlimit="10" stroke-width="1.74" d="M23.7 23.7l.7-6.9"/><path fill="#231f20" stroke="#231f20" stroke-miterlimit="10" stroke-width="1.39" d="M23.7 49.1H38v8.58H23.7z"/></symbol><symbol id="facebook-white" viewBox="0 0 64 64"><path fill="#fff" d="M56.4 0A7.6 7.6 0 0 1 64 7.6v48.8a7.6 7.6 0 0 1-7.6 7.6H7.6A7.6 7.6 0 0 1 0 56.4V7.6A7.6 7.6 0 0 1 7.6 0zM3.1 7.6v48.8a4.5 4.5 0 0 0 4.5 4.5H32V39.6h-4.5V28.9H32v-3a13.3 13.3 0 0 1 2.6-8.5 9.9 9.9 0 0 1 8.1-3.7 21.1 21.1 0 0 1 8.2 1.7l.9.4v8.6h-4.5a6.6 6.6 0 0 0-2.8.4c-.2.2-.3.3-.3 1.1v3h7.9L50 39.6h-5.8v21.3h12.2a4.5 4.5 0 0 0 4.5-4.5V7.6a4.5 4.5 0 0 0-4.5-4.5H7.6a4.4 4.4 0 0 0-4.5 4.4zM37 19.2a10.5 10.5 0 0 0-2 6.7V32h-4.6v4.5H35v24.4h6.1V36.5h6.4l.9-4.5h-7.3v-6.1a4.3 4.3 0 0 1 1.8-3.6 7.4 7.4 0 0 1 4.4-1h1.4v-3.5a17.7 17.7 0 0 0-6-1.1 6.9 6.9 0 0 0-5.7 2.5z"/></symbol><symbol id="hoodie-white" viewBox="0 0 64 64"><path fill="none" stroke="#fff" stroke-miterlimit="10" stroke-width="1.74" d="M21.7 11.3l5.9 6.3s7.7-7.4 13.7-6.3c0 0 3.6-12.7-9.8-11.2s-9.8 11.2-9.8 11.2z"/><path fill="none" stroke="#fff" stroke-miterlimit="10" stroke-width="1.74" d="M27.6 21.8L23.2 17l-3.3-3.7s-6.2-10-8.5 41.3l3.8 1.4 3.1-27.7v33.9L45.6 64v-3.6h-3.8V24.9l2.7 33.5 3.9.2s6.1-29-3.5-44.4c0 0-9.4-2.9-17.3 7.6z"/><path fill="#fff" stroke="#fff" stroke-miterlimit="10" d="M24.2 9.6l4 4.3s5.3-5.1 9.4-4.3c0 0 2.4-8.7-6.7-7.6s-6.7 7.6-6.7 7.6z"/><path fill="none" stroke="#fff" stroke-miterlimit="10" stroke-width="1.18" d="M33.3 16.4v7.4"/><path fill="none" stroke="#fff" stroke-miterlimit="10" stroke-width="1.74" d="M22.6 23.8l.6-6.8"/><path fill="#fff" stroke="#fff" stroke-miterlimit="10" stroke-width="1.39" d="M22.6 49.2h14.3v8.58H22.6z"/></symbol><symbol id="cart-white" viewBox="0 0 64 64"><path fill="#fff" stroke="#fff" stroke-miterlimit="10" d="M13.8 17.5h47.6L54 43.4H23.8l-10-25.9z"/><circle cx="28.2" cy="57.7" r="4.9" fill="#fff" stroke="#fff" stroke-miterlimit="10"/><circle cx="49" cy="57.4" r="4.9" fill="#fff" stroke="#fff" stroke-miterlimit="10"/><path fill="#fff" stroke="#fff" stroke-miterlimit="10" stroke-width="4.06" d="M-.1 19.7H9l11.1 29h37.3"/></symbol><symbol id="instagram-black" viewBox="0 0 64 64"><path fill="#231f20" d="M18.9 0A18.9 18.9 0 0 0 0 18.9v26.2A18.9 18.9 0 0 0 18.9 64h26.2A18.9 18.9 0 0 0 64 45.1V18.9A18.9 18.9 0 0 0 45.1 0zm0 2.9h26.2a16 16 0 0 1 16 15.9v26.3a16 16 0 0 1-15.9 16H18.9a16 16 0 0 1-16-15.9V18.9a16 16 0 0 1 15.9-16zm30.6 8.7a3 3 0 1 0 2.9 2.9 2.9 2.9 0 0 0-2.9-2.9zM32 16a16 16 0 1 0 16 16 16 16 0 0 0-16-16zm0 2.9a13.1 13.1 0 1 1-.1 0z"/></symbol><symbol id="instagram-white" viewBox="0 0 64 64"><path fill="#fff" d="M18.9 0A18.9 18.9 0 0 0 0 18.9v26.2A18.9 18.9 0 0 0 18.9 64h26.2A18.9 18.9 0 0 0 64 45.1V18.9A18.9 18.9 0 0 0 45.1 0zm0 2.9h26.2a16 16 0 0 1 16 15.9v26.3a16 16 0 0 1-15.9 16H18.9a16 16 0 0 1-16-15.9V18.9a16 16 0 0 1 15.9-16zm30.6 8.7a3 3 0 1 0 2.9 2.9 2.9 2.9 0 0 0-2.9-2.9zM32 16a16 16 0 1 0 16 16 16 16 0 0 0-16-16zm0 2.9a13.1 13.1 0 1 1-.1 0z"/></symbol><symbol id="jacket-black" viewBox="0 0 64 64"><path fill="#231f20" d="M50.8 27.1L50.1 44c-6.9 3.8-15.7 0-15.7 0V25.3a54.8 54.8 0 0 0 16.4 1.8zM41.9 1L32 10.3 22 1s15.4-2.2 19.9 0zM29.6 25.3V44a22.7 22.7 0 0 1-15.7 0l-.7-17.3s10.4 1.6 16.4-1.4z"/><path fill="none" stroke="#231f20" stroke-miterlimit="10" stroke-width="2" d="M12.3 9.4v-.3l11.9-2.4 5.4 6v46a4 4 0 0 1-3.8 5 39 39 0 0 1-9.1 0 3.9 3.9 0 0 1-2.2-4.6l-.5-11zM50 47l-.5 12.5s.4 4.9-4.6 4.5a41.6 41.6 0 0 0-8.7 0 4.3 4.3 0 0 1-1.8-4.9V12.7l4.6-6 12.5 2"/><path fill="none" stroke="#231f20" stroke-miterlimit="10" stroke-width="2" d="M50 47s.1 12.7 1.5 13.7 7.8 1.8 9.8-2.6l-4.4-45.6-5.4-3.8-.7 18.4-.7 16.9zm-36.1-3v4.1c-.1 2.6-.3 12.3-1.5 13.2s-7.8 1.8-9.8-2.6l4.5-45.6 5.2-3.7h.2l.7 17.4z"/><path fill="none" stroke="#231f20" stroke-miterlimit="10" stroke-width=".77" d="M22 1s15.4-2.2 19.9 0L32 10.3zm-8.8 25.7s10.4 1.6 16.4-1.4M13.9 44a22.7 22.7 0 0 0 15.7 0h.1m4.7-18.7a54.8 54.8 0 0 0 16.4 1.8h.7M34.4 44s8.8 3.8 15.7 0"/></symbol><symbol id="jacket-white" viewBox="0 0 64 64"><path fill="#fff" d="M50.8 27.1L50.1 44c-6.9 3.8-15.7 0-15.7 0V25.3a54.8 54.8 0 0 0 16.4 1.8zM41.9 1L32 10.3 22 1s15.4-2.2 19.9 0zM29.6 25.3V44a23 23 0 0 1-15.8 0l-.6-17.3s10.4 1.6 16.4-1.4z"/><path fill="none" stroke="#fff" stroke-miterlimit="10" stroke-width="2" d="M12.3 9.4v-.3l11.9-2.4 5.4 6v46a4 4 0 0 1-3.8 5 40 40 0 0 1-9.2 0 3.9 3.9 0 0 1-2.1-4.6l-.5-11zM50 47l-.5 12.5s.4 4.9-4.6 4.5a41.2 41.2 0 0 0-8.7 0 4.3 4.3 0 0 1-1.8-4.9V12.7l4.5-6 12.6 2"/><path fill="none" stroke="#fff" stroke-miterlimit="10" stroke-width="2" d="M50 47s.1 12.7 1.5 13.7 7.8 1.8 9.8-2.6l-4.4-45.6-5.4-3.8-.7 18.4-.7 16.9zm-36.2-3l.2 3.5v.6c-.1 2.6-.3 12.3-1.5 13.2s-7.8 1.8-9.8-2.6l4.4-45.6 5.2-3.7h.2l.7 17.4z"/><path fill="none" stroke="#fff" stroke-miterlimit="10" stroke-width=".77" d="M22 1s15.4-2.2 19.9 0L32 10.3zm-8.8 25.7s10.4 1.6 16.4-1.4M13.8 44a23 23 0 0 0 15.8 0h.1m4.7-18.7a54.8 54.8 0 0 0 16.4 1.8h.7M34.4 44s8.8 3.8 15.7 0"/></symbol><symbol id="ring-black" viewBox="0 0 64 64"><path fill="none" stroke="#231f20" stroke-miterlimit="10" stroke-width="2.85" d="M41.9 19.1a23.5 23.5 0 1 1-19.1-.3"/><path fill="none" stroke="#231f20" stroke-miterlimit="10" stroke-width="2" d="M15.1 7.4L32 24.2 51.3 7.4 43 0H23.9l-8.8 7.4z"/><path fill="#231f20" stroke="#231f20" stroke-miterlimit="10" stroke-width="1.07" d="M27.2 6h11l-6.1 13.9L27.2 6zm14.2 1h3.4L32.1 21l9.3-14z"/><path fill="#231f20" stroke="#231f20" stroke-miterlimit="10" stroke-width="1.07" d="M23.1 7h-3.4l12.8 14-9.4-14z"/></symbol><symbol id="ring-white" viewBox="0 0 64 64"><path fill="none" stroke="#fff" stroke-miterlimit="10" stroke-width="2.85" d="M41.9 19.1a23.5 23.5 0 1 1-19.1-.3"/><path fill="none" stroke="#fff" stroke-miterlimit="10" stroke-width="2" d="M15.1 7.4L32 24.2 51.3 7.4 43 0H23.9l-8.8 7.4z"/><path fill="#fff" stroke="#fff" stroke-miterlimit="10" stroke-width="1.07" d="M27.2 6h11l-6.1 13.9L27.2 6zm14.2 1h3.4L32.1 21l9.3-14z"/><path fill="#fff" stroke="#fff" stroke-miterlimit="10" stroke-width="1.07" d="M23.1 7h-3.4l12.8 14-9.4-14z"/></symbol><symbol id="sale-black" viewBox="0 0 64 64"><path fill="none" stroke="#231f20" stroke-miterlimit="10" stroke-width="2.43" d="M39.2 10.6l-11.8 5.3-15.2 41.5L30.3 64l15-42.1-6.1-11.3z"/><circle cx="37.3" cy="16.6" r="1.2" fill="#231f20"/><path fill="none" stroke="#231f20" stroke-miterlimit="10" stroke-width="1.22" d="M37.7 9.1s4.2-10.3 10.1-9-4.7 9.8-6.8 10.6"/><path fill="#231f20" d="M24.9 42.6l-.3.8c-.6-.1-.9 0-1.1.5a2 2 0 0 0-.1.7.9.9 0 0 0 .6.4.6.6 0 0 0 .6 0l2.6-.9a2 2 0 0 1 1.3-.1l.4.2a1.3 1.3 0 0 1 1 .9 1.5 1.5 0 0 1 0 1.3l-.3.8a2 2 0 0 1-.9 1.1 2 2 0 0 1-1.3-.1l.3-.8h.1a.6.6 0 0 0 .6 0 1 1 0 0 0 .4-.5.8.8 0 0 0 0-.7.7.7 0 0 0-.5-.4h-.7l-2.5 1a1.5 1.5 0 0 1-1.3 0h-.4a1.8 1.8 0 0 1-1-.9 1.7 1.7 0 0 1 0-1.4l.3-.8a1.6 1.6 0 0 1 2.2-1.1zm6.2.6L25.5 41a1.2 1.2 0 0 1-.9-.9 1.5 1.5 0 0 1-.1-1.3l.6-1.6a1.8 1.8 0 0 1 .9-1 1.7 1.7 0 0 1 1.4 0l5.6 2.1-.6 1.7-3.2-1.3-.7 1.6 3.3 1.3zM27.7 40l.7-1.6-1.7-.6h-.6a1.2 1.2 0 0 0-.5.5.8.8 0 0 0 0 .7 1 1 0 0 0 .5.4zm5.9-3.3L26.4 34l.6-1.7 6.4 2.5.9-2.4.9.3zm2.2-5.6l-7.3-2.8 1.6-4 .8.3-1 2.4 2.5.9.6-1.6.8.3-.6 1.7 2.4.9.9-2.4.8.3z"/></symbol><symbol id="sale-white" viewBox="0 0 64 64"><path fill="none" stroke="#fff" stroke-miterlimit="10" stroke-width="2.43" d="M37.2 10.6l-11.8 5.3-15.1 41.5 18 6.6 15-42.1-6.1-11.3z"/><circle cx="35.3" cy="16.6" r="1.2" fill="#fff"/><path fill="none" stroke="#fff" stroke-miterlimit="10" stroke-width="1.22" d="M35.7 9.1s4.2-10.3 10.1-9-4.6 9.8-6.8 10.6"/><path fill="#fff" d="M22.9 42.6l-.3.8c-.6-.1-.9 0-1.1.5a.8.8 0 0 0 0 .7c0 .2.2.3.5.4a.6.6 0 0 0 .6 0l2.6-.9a2 2 0 0 1 1.3-.1l.4.2a1.3 1.3 0 0 1 1 .9 1.5 1.5 0 0 1 0 1.3l-.3.8a2.4 2.4 0 0 1-.8 1.1 2.3 2.3 0 0 1-1.4-.1l.3-.8h.1a.6.6 0 0 0 .6 0 1 1 0 0 0 .4-.5.8.8 0 0 0 0-.7.7.7 0 0 0-.5-.4h-.7l-2.5 1a1.5 1.5 0 0 1-1.3 0h-.4a1.8 1.8 0 0 1-1-.9 1.7 1.7 0 0 1 0-1.4l.3-.8a1.6 1.6 0 0 1 2.2-1.1zm6.3.6L23.5 41a1.3 1.3 0 0 1-.9-.9 2 2 0 0 1-.1-1.3l.6-1.6a1.8 1.8 0 0 1 .9-1 1.7 1.7 0 0 1 1.4 0l5.6 2.1-.6 1.7-3.2-1.3-.7 1.6 3.3 1.3zM25.7 40l.7-1.6-1.6-.6h-.7a1.2 1.2 0 0 0-.5.5c-.1.2 0 .4 0 .7a1 1 0 0 0 .5.4zm5.9-3.3L24.4 34l.6-1.7 6.4 2.5 1-2.4.8.3zm2.2-5.6l-7.3-2.8 1.6-4 .8.3-1 2.4 2.5.9.6-1.6.8.3-.6 1.7 2.4.9.9-2.4.8.3z"/></symbol><symbol id="facebook-black" viewBox="0 0 64 64"><path fill="#231f20" d="M56.4 0A7.6 7.6 0 0 1 64 7.6v48.8a7.6 7.6 0 0 1-7.6 7.6H7.6A7.6 7.6 0 0 1 0 56.4V7.6A7.6 7.6 0 0 1 7.6 0zM3.1 7.6v48.8a4.5 4.5 0 0 0 4.5 4.5H32V39.6h-4.5V28.9H32v-3a13.3 13.3 0 0 1 2.6-8.5 9.9 9.9 0 0 1 8.1-3.7 21.1 21.1 0 0 1 8.2 1.7l.9.4v8.6h-4.5a6.6 6.6 0 0 0-2.8.4c-.2.2-.3.3-.3 1.1v3h7.9L50 39.6h-5.8v21.3h12.2a4.5 4.5 0 0 0 4.5-4.5V7.6a4.5 4.5 0 0 0-4.5-4.5H7.6a4.4 4.4 0 0 0-4.5 4.4zM37 19.2a10.5 10.5 0 0 0-2 6.7V32h-4.6v4.5H35v24.4h6.1V36.5h6.4l.9-4.5h-7.3v-6.1a4.3 4.3 0 0 1 1.8-3.6 7.4 7.4 0 0 1 4.4-1h1.4v-3.5a17.7 17.7 0 0 0-6-1.1 6.9 6.9 0 0 0-5.7 2.5z"/></symbol><symbol id="twitter-black" viewBox="0 0 64 64"><path fill="#231f20" d="M44 8.6a13.9 13.9 0 0 0-13.9 13.9c0 .4.1.9.1 1.3A34.2 34.2 0 0 1 6.8 11.4a1.7 1.7 0 0 0-1.2-.5 1.1 1.1 0 0 0-.9.6 13.6 13.6 0 0 0 .8 15.2l-1-.4a1.3 1.3 0 0 0-1.2 0 1.1 1.1 0 0 0-.6 1.1v.2a13.6 13.6 0 0 0 6 11.3h-.1a1.3 1.3 0 0 0-1.2.4 1.3 1.3 0 0 0-.3 1.2 13.9 13.9 0 0 0 9.6 9.1A23.9 23.9 0 0 1 4.5 53a14.2 14.2 0 0 1-2.9-.2 1.4 1.4 0 0 0-1.4.9 1.3 1.3 0 0 0 .6 1.5 36.5 36.5 0 0 0 20 5.9c11.9 0 21.3-5 27.5-12.2a38.2 38.2 0 0 0 9.6-25v-1a28 28 0 0 0 6-6.4 1.2 1.2 0 0 0 0-1.5 1.6 1.6 0 0 0-1.6-.4l-2.1.6a15.6 15.6 0 0 0 2.2-4 1.6 1.6 0 0 0-.5-1.4 1.4 1.4 0 0 0-1.4-.1 24.5 24.5 0 0 1-7.2 2.8A13.1 13.1 0 0 0 44 8.6zm0 2.6a11.4 11.4 0 0 1 8.2 3.5 1.4 1.4 0 0 0 1.2.4 19.2 19.2 0 0 0 4.8-1.5 9.8 9.8 0 0 1-3.3 3.1 1.3 1.3 0 0 0-.6 1.6 1.5 1.5 0 0 0 1.5.8l3.6-1a27.4 27.4 0 0 1-3.6 3.2 1.4 1.4 0 0 0-.5 1.1c0 .5.1 1 .1 1.5a35.7 35.7 0 0 1-9 23.3C40.6 53.9 32 58.5 20.8 58.5a33.5 33.5 0 0 1-14.3-3.1 27.2 27.2 0 0 0 14.4-5.5 1.2 1.2 0 0 0 .4-1.4 1.1 1.1 0 0 0-1.2-.8 11.7 11.7 0 0 1-9.6-6h.2a15.1 15.1 0 0 0 3.7-.6 1.2 1.2 0 0 0 .9-1.2 1.2 1.2 0 0 0-1-1.2 11.6 11.6 0 0 1-8.8-9.3 14.3 14.3 0 0 0 4.1.9 1.4 1.4 0 0 0 1.3-.9 1.2 1.2 0 0 0-.6-1.5 11.4 11.4 0 0 1-5-9.4 9.8 9.8 0 0 1 .9-4.1 36.6 36.6 0 0 0 25.4 12.2 1.5 1.5 0 0 0 1.1-.4 1.1 1.1 0 0 0 .3-1.1 11.5 11.5 0 0 1-.3-2.6A11.2 11.2 0 0 1 44 11.2z"/></symbol><symbol id="twitter-white" viewBox="0 0 64 64"><path fill="#fff" d="M43.8 8.4a13.9 13.9 0 0 0-13.9 13.9 6.8 6.8 0 0 0 .2 1.4A34.2 34.2 0 0 1 6.6 11.3a1.4 1.4 0 0 0-1.2-.6 1.3 1.3 0 0 0-.9.7 13.3 13.3 0 0 0 .9 15.1l-1-.3a1.5 1.5 0 0 0-1.3 0 1.3 1.3 0 0 0-.6 1v.2a13.9 13.9 0 0 0 6 11.4h-.1a1.3 1.3 0 0 0-1.2.3 1.2 1.2 0 0 0-.2 1.3 13.4 13.4 0 0 0 9.6 9 23.3 23.3 0 0 1-12.3 3.4H1.5a1.2 1.2 0 0 0-1.4.8 1.4 1.4 0 0 0 .5 1.6 37.3 37.3 0 0 0 20 5.8c12 0 21.3-4.9 27.6-12.1a38.8 38.8 0 0 0 9.5-25v-1.2a30.4 30.4 0 0 0 6.1-6.3 1.4 1.4 0 0 0-.1-1.6 1.4 1.4 0 0 0-1.5-.3L60 15a12.6 12.6 0 0 0 2.2-3.9 1.2 1.2 0 0 0-.4-1.4 1.2 1.2 0 0 0-1.5-.1 22.3 22.3 0 0 1-7.2 2.7 13.8 13.8 0 0 0-9.3-3.9zm0 2.6a11.5 11.5 0 0 1 8.3 3.6 1.6 1.6 0 0 0 1.2.4l4.8-1.5a11 11 0 0 1-3.4 3 1.4 1.4 0 0 0-.6 1.6 1.4 1.4 0 0 0 1.5.8 24.2 24.2 0 0 0 3.6-1 21.7 21.7 0 0 1-3.6 3.2 1.7 1.7 0 0 0-.5 1.2c0 .5.1 1 .1 1.5a35.9 35.9 0 0 1-9 23.3 33 33 0 0 1-25.6 11.3 35.4 35.4 0 0 1-14.3-3.1 26.6 26.6 0 0 0 14.4-5.5 1.4 1.4 0 0 0 .4-1.5 1.1 1.1 0 0 0-1.1-.8 11.3 11.3 0 0 1-9.7-6h.3a14.9 14.9 0 0 0 3.6-.5 1.2 1.2 0 0 0-.1-2.4 11.3 11.3 0 0 1-8.7-9.3 11 11 0 0 0 4 .8 1.2 1.2 0 0 0 1.3-.8 1.2 1.2 0 0 0-.5-1.5 11.3 11.3 0 0 1-5.1-9.4 13.6 13.6 0 0 1 .9-4.1 37.5 37.5 0 0 0 25.5 12.2 1.4 1.4 0 0 0 1-.5 1.1 1.1 0 0 0 .3-1.1 10.9 10.9 0 0 1-.3-2.6A11.4 11.4 0 0 1 43.8 11z"/></symbol><symbol id="shirt-black" viewBox="0 0 64 64"><path fill="none" stroke="#231f20" stroke-miterlimit="10" stroke-width="6.08" d="M21.4 6.1s10.1 20 20.7 0L62 18.8l-7.5 14.8-5.9-4.2v28.5H15.4V29.4L9.2 32 2 19.3z"/></symbol><symbol id="shirt-white" viewBox="0 0 64 64"><path fill="none" stroke="#fff" stroke-miterlimit="10" stroke-width="6.08" d="M21.4 8.8s10.1 19.9 20.7 0L62 21.5l-7.5 14.7-5.9-4.1v28.5H15.4V32.1l-6.2 2.6L2 22z"/></symbol></svg>