<svg xmlns="http://www.w3.org/2000/svg"><symbol id="colour-black" viewBox="0 0 64 64"><circle cx="32" cy="32.6" r="28.7" fill="#231f20" stroke="#231f20" stroke-miterlimit="10" stroke-width="3"/></symbol><symbol id="colour-navy" viewBox="0 0 64 64"><circle cx="32" cy="32.6" r="28.7" fill="#040070" stroke="#231f20" stroke-miterlimit="10" stroke-width="3"/></symbol><symbol id="cart-white" viewBox="0 0 64 64"><path fill="#fff" stroke="#fff" stroke-miterlimit="10" d="M13.8 17.5h47.6L54 43.4H23.8l-10-25.9z"/><circle cx="28.2" cy="57.7" r="4.9" fill="none" stroke="#fff" stroke-miterlimit="10"/><circle cx="49" cy="57.4" r="4.9" fill="none" stroke="#fff" stroke-miterlimit="10"/><path fill="none" stroke="#fff" stroke-miterlimit="10" stroke-width="4.06" d="M-.1 19.7H9l11.1 29h37.3"/></symbol><symbol id="colour-red" viewBox="0 0 64 64"><circle cx="32" cy="32.6" r="28.7" fill="#a30800" stroke="#231f20" stroke-miterlimit="10" stroke-width="3"/></symbol><symbol id="colour-white" viewBox="0 0 64 64"><circle cx="32" cy="32.6" r="28.7" fill="#fff" stroke="#231f20" stroke-miterlimit="10" stroke-width="3"/></symbol><symbol id="facebook-white" viewBox="0 0 64 64"><path fill="#fff" d="M56.4 0A7.6 7.6 0 0 1 64 7.6v48.8a7.6 7.6 0 0 1-7.6 7.6H7.6A7.6 7.6 0 0 1 0 56.4V7.6A7.6 7.6 0 0 1 7.6 0zM3.1 7.6v48.8a4.5 4.5 0 0 0 4.5 4.5H32V39.6h-4.5V28.9H32v-3a13.3 13.3 0 0 1 2.6-8.5 9.9 9.9 0 0 1 8.1-3.7 21.1 21.1 0 0 1 8.2 1.7l.9.4v8.6h-4.5a6.6 6.6 0 0 0-2.8.4c-.2.2-.3.3-.3 1.1v3h7.9L50 39.6h-5.8v21.3h12.2a4.5 4.5 0 0 0 4.5-4.5V7.6a4.5 4.5 0 0 0-4.5-4.5H7.6a4.4 4.4 0 0 0-4.5 4.4zM37 19.2a10.5 10.5 0 0 0-2 6.7V32h-4.6v4.5H35v24.4h6.1V36.5h6.4l.9-4.5h-7.3v-6.1a4.3 4.3 0 0 1 1.8-3.6 7.4 7.4 0 0 1 4.4-1h1.4v-3.5a17.7 17.7 0 0 0-6-1.1 6.9 6.9 0 0 0-5.7 2.5z"/></symbol><symbol id="cart-black" viewBox="0 0 64 64"><path fill="#231f20" d="M13.8 15.1h47.6l-7.4 26H23.8l-10-26z"/><circle cx="28.2" cy="55.4" r="4.9" fill="#231f20"/><circle cx="49" cy="55.1" r="4.9" fill="#231f20"/><path fill="none" stroke="#231f20" stroke-miterlimit="10" stroke-width="4.06" d="M-.1 17.4H9l11.1 29h37.3"/></symbol><symbol id="hamburger" viewBox="0 0 64 64"><rect width="60.1" height="10.63" x="1.9" y="40.6" fill="#fff" stroke="#fff" stroke-miterlimit="10" rx="3.3" transform="rotate(-180 32 45.9)"/><rect width="60.1" height="6.57" x="1.9" y="30.6" fill="#fff" stroke="#fff" stroke-miterlimit="10" rx="3.3"/><rect width="60.1" height="10.63" x="1.9" y="16.5" fill="#fff" stroke="#fff" stroke-miterlimit="10" rx="3.3" transform="rotate(-180 32 21.8)"/></symbol><symbol id="happy-face" viewBox="0 0 64 64"><circle cx="31.7" cy="31.9" r="28.4" fill="none" stroke="#231f20" stroke-miterlimit="10" stroke-width="5"/><circle cx="19.8" cy="17.6" r="4.2" fill="#231f20"/><circle cx="41.9" cy="17.6" r="4.2" fill="#231f20"/><path fill="none" stroke="#231f20" stroke-miterlimit="10" stroke-width="5" d="M15.6 33.8s15.8 22.9 30.5 0"/></symbol><symbol id="hoodie-black" viewBox="0 0 64 64"><path fill="none" stroke="#231f20" stroke-miterlimit="10" stroke-width="1.63" d="M23.4 12.4l5.5 5.9s7.3-7 12.9-5.9c0 0 3.4-12-9.2-10.5s-9.2 10.5-9.2 10.5z"/><path fill="none" stroke="#231f20" stroke-miterlimit="10" stroke-width="1.63" d="M28.9 22.3l-4.1-4.6-3.1-3.4s-5.9-9.5-8 38.8l3.6 1.3 2.9-26v31.9l25.6 1.6v-3.3h-3.6V25.2l2.6 31.5 3.7.2s5.7-27.3-3.3-41.8c0 0-8.8-2.7-16.3 7.2z"/><path fill="#231f20" d="M25.7 10.8l3.8 4s4.9-4.7 8.8-4c0 0 2.3-8.1-6.3-7.1s-6.3 7.1-6.3 7.1z"/><path fill="none" stroke="#231f20" stroke-miterlimit="10" stroke-width="1.11" d="M34.3 17.2v7"/><path fill="none" stroke="#231f20" stroke-miterlimit="10" stroke-width="1.63" d="M24.2 24.2l.6-6.5"/><path fill="#231f20" stroke="#231f20" stroke-miterlimit="10" stroke-width="1.3" d="M24.2 48h13.5v8.06H24.2z"/></symbol><symbol id="facebook-black" viewBox="0 0 64 64"><path fill="#231f20" d="M56.4 0A7.6 7.6 0 0 1 64 7.6v48.8a7.6 7.6 0 0 1-7.6 7.6H7.6A7.6 7.6 0 0 1 0 56.4V7.6A7.6 7.6 0 0 1 7.6 0zM3.1 7.6v48.8a4.5 4.5 0 0 0 4.5 4.5H32V39.6h-4.5V28.9H32v-3a13.3 13.3 0 0 1 2.6-8.5 9.9 9.9 0 0 1 8.1-3.7 21.1 21.1 0 0 1 8.2 1.7l.9.4v8.6h-4.5a6.6 6.6 0 0 0-2.8.4c-.2.2-.3.3-.3 1.1v3h7.9L50 39.6h-5.8v21.3h12.2a4.5 4.5 0 0 0 4.5-4.5V7.6a4.5 4.5 0 0 0-4.5-4.5H7.6a4.4 4.4 0 0 0-4.5 4.4zM37 19.2a10.5 10.5 0 0 0-2 6.7V32h-4.6v4.5H35v24.4h6.1V36.5h6.4l.9-4.5h-7.3v-6.1a4.3 4.3 0 0 1 1.8-3.6 7.4 7.4 0 0 1 4.4-1h1.4v-3.5a17.7 17.7 0 0 0-6-1.1 6.9 6.9 0 0 0-5.7 2.5z"/></symbol><symbol id="hoodie-white" viewBox="0 0 64 64"><path fill="none" stroke="#fff" stroke-miterlimit="10" stroke-width="1.63" d="M22.3 12.5l5.6 5.9s7.2-6.9 12.9-5.9c0 0 3.3-11.9-9.3-10.5s-9.2 10.5-9.2 10.5z"/><path fill="none" stroke="#fff" stroke-miterlimit="10" stroke-width="1.63" d="M27.9 22.4l-4.1-4.5-3.2-3.5S14.8 5 12.7 53.3l3.5 1.2 3-26v31.9l25.6 1.7v-3.4h-3.6V25.3l2.5 31.5 3.7.2s5.8-27.2-3.3-41.7c0 0-8.8-2.8-16.2 7.1z"/><path fill="#fff" d="M24.7 10.9l3.7 4s5-4.7 8.8-4c0 0 2.3-8.1-6.3-7.1s-6.2 7.1-6.2 7.1z"/><path fill="none" stroke="#fff" stroke-miterlimit="10" stroke-width="1.11" d="M33.2 17.3v7"/><path fill="none" stroke="#fff" stroke-miterlimit="10" stroke-width="1.63" d="M23.1 24.3l.7-6.4"/><path fill="#fff" stroke="#fff" stroke-miterlimit="10" stroke-width="1.3" d="M23.1 48.2h13.5v8.06H23.1z"/></symbol><symbol id="instagram-black" viewBox="0 0 64 64"><path fill="#231f20" d="M18.9 0A18.9 18.9 0 0 0 0 18.9v26.2A18.9 18.9 0 0 0 18.9 64h26.2A18.9 18.9 0 0 0 64 45.1V18.9A18.9 18.9 0 0 0 45.1 0zm0 2.9h26.2a16 16 0 0 1 16 15.9v26.3a16 16 0 0 1-15.9 16H18.9a16 16 0 0 1-16-15.9V18.9a16 16 0 0 1 15.9-16zm30.6 8.7a3 3 0 1 0 2.9 2.9 2.9 2.9 0 0 0-2.9-2.9zM32 16a16 16 0 1 0 16 16 16 16 0 0 0-16-16zm0 2.9a13.1 13.1 0 1 1-.1 0z"/></symbol><symbol id="instagram-white" viewBox="0 0 64 64"><path fill="#fff" d="M18.9 0A18.9 18.9 0 0 0 0 18.9v26.2A18.9 18.9 0 0 0 18.9 64h26.2A18.9 18.9 0 0 0 64 45.1V18.9A18.9 18.9 0 0 0 45.1 0zm0 2.9h26.2a16 16 0 0 1 16 15.9v26.3a16 16 0 0 1-15.9 16H18.9a16 16 0 0 1-16-15.9V18.9a16 16 0 0 1 15.9-16zm30.6 8.7a3 3 0 1 0 2.9 2.9 2.9 2.9 0 0 0-2.9-2.9zM32 16a16 16 0 1 0 16 16 16 16 0 0 0-16-16zm0 2.9a13.1 13.1 0 1 1-.1 0z"/></symbol><symbol id="jacket-white" viewBox="0 0 64 64"><path fill="#fff" d="M49.6 27.4L49 43.3l.6-15.9zm0 0L49 43.3c-6.5 3.5-14.8 0-14.8 0V25.7a54.6 54.6 0 0 0 15.4 1.7zm-27-24.6s14.4-2 18.7 0L32 11.6zm7.1 22.9v17.6a22.3 22.3 0 0 1-14.8 0L14.3 27c.3 0 9.9 1.4 15.4-1.3z"/><path fill="none" stroke="#fff" stroke-miterlimit="10" stroke-width="1.88" d="M15.1 47.2l-1.6-36.4v-.3l11.2-2.2 5 5.6v43.2a3.7 3.7 0 0 1-3.5 4.7 34.9 34.9 0 0 1-8.6 0 3.7 3.7 0 0 1-2.1-4.3l-.4-10.3m34.5-19.8L49 43.3v2.9l-.4 11.7s.3 4.6-4.4 4.1a46.2 46.2 0 0 0-8.2 0 3.9 3.9 0 0 1-1.7-4.5V13.9l4.3-5.6 11.8 1.8"/><path fill="none" stroke="#fff" stroke-miterlimit="10" stroke-width="1.88" d="M49 43.3v2.8c0 1 .2 11.9 1.4 12.8s7.3 1.7 9.2-2.4l-4.2-42.8-5.1-3.6-.7 17.3zm-34.1 0l.2 3.3v.6c-.1 2.6-.3 11.5-1.4 12.3s-7.3 1.7-9.2-2.4l4.1-42.9 4.9-3.4h.2l.6 16.2z"/><path fill="none" stroke="#fff" stroke-miterlimit="10" stroke-width=".72" d="M22.6 2.8s14.4-2 18.7 0L32 11.6zM14.3 27c.3 0 9.9 1.4 15.4-1.3M14.9 43.3a22.3 22.3 0 0 0 14.8 0h.1m4.4-17.6a54.6 54.6 0 0 0 15.4 1.7h.7M34.2 43.3s8.3 3.5 14.8 0"/></symbol><symbol id="neutral-face" viewBox="0 0 64 64"><circle cx="31.7" cy="32" r="28.4" fill="none" stroke="#231f20" stroke-miterlimit="10" stroke-width="5"/><circle cx="19.8" cy="17.7" r="4.2" fill="#231f20"/><circle cx="41.9" cy="17.7" r="4.2" fill="#231f20"/><path fill="#231f20" stroke="#231f20" stroke-miterlimit="10" stroke-width="5" d="M13.8 36.2h35.8"/></symbol><symbol id="jacket-black" viewBox="0 0 64 64"><path fill="#231f20" d="M49.7 27.4L49 43.3c-6.5 3.5-14.8 0-14.8 0V25.7a54.9 54.9 0 0 0 15.5 1.7zM41.4 2.8L32 11.6l-9.4-8.8s14.4-2 18.8 0zM29.7 25.7v17.6a22.3 22.3 0 0 1-14.8 0L14.3 27s9.8 1.5 15.4-1.3z"/><path fill="none" stroke="#231f20" stroke-miterlimit="10" stroke-width="1.88" d="M13.5 10.8v-.3l11.2-2.2 5 5.6v43.2a3.7 3.7 0 0 1-3.5 4.7 34.9 34.9 0 0 1-8.6 0 3.7 3.7 0 0 1-2.1-4.3l-.4-10.3zm35.4 35.3l-.4 11.8s.3 4.6-4.3 4.1a47.2 47.2 0 0 0-8.3 0 3.9 3.9 0 0 1-1.7-4.5V13.9l4.3-5.6 11.8 1.8"/><path fill="none" stroke="#231f20" stroke-miterlimit="10" stroke-width="1.88" d="M48.9 46.1s.1 12 1.4 12.9 7.3 1.7 9.2-2.4l-4.1-42.9-5.1-3.6-.6 17.3-.7 15.9zm-34-2.8l.2 3.3v.6c-.1 2.4-.3 11.5-1.4 12.3s-7.3 1.7-9.2-2.4l4.1-42.9 4.9-3.4h.2l.6 16.2z"/><path fill="none" stroke="#231f20" stroke-miterlimit="10" stroke-width=".72" d="M22.6 2.8s14.4-2 18.8 0L32 11.6zM14.3 27s9.8 1.5 15.4-1.3M14.9 43.3a22.3 22.3 0 0 0 14.8 0h.1m4.4-17.6a54.9 54.9 0 0 0 15.5 1.7h.6M34.2 43.3s8.3 3.5 14.8 0"/></symbol><symbol id="ring-black" viewBox="0 0 64 64"><path fill="none" stroke="#231f20" stroke-miterlimit="10" stroke-width="2.68" d="M41.3 19.9a22.1 22.1 0 1 1-17.9-.3"/><path fill="none" stroke="#231f20" stroke-miterlimit="10" stroke-width="1.88" d="M16.2 8.8L32 24.7 50.1 8.8l-7.7-6.9h-18l-8.2 6.9z"/><path fill="#231f20" stroke="#231f20" stroke-miterlimit="10" d="M27.5 7.5h10.4l-5.8 13.1-4.6-13.1zm13.4 1H44L32.1 21.7l8.8-13.2z"/><path fill="#231f20" stroke="#231f20" stroke-miterlimit="10" d="M23.6 8.5h-3.1l11.9 13.2-8.8-13.2z"/></symbol><symbol id="ring-white" viewBox="0 0 64 64"><path fill="none" stroke="#fff" stroke-miterlimit="10" stroke-width="2.68" d="M41.3 19.9a22.1 22.1 0 1 1-17.9-.3"/><path fill="none" stroke="#fff" stroke-miterlimit="10" stroke-width="1.88" d="M16.2 8.8L32 24.7 50.1 8.8l-7.7-6.9h-18l-8.2 6.9z"/><path fill="#fff" stroke="#fff" stroke-miterlimit="10" d="M27.5 7.5h10.4l-5.8 13.1-4.6-13.1zm13.4 1H44L32.1 21.7l8.8-13.2z"/><path fill="#fff" stroke="#fff" stroke-miterlimit="10" d="M23.6 8.5h-3.1l11.9 13.2-8.8-13.2z"/></symbol><symbol id="sad-face" viewBox="0 0 64 64"><circle cx="32" cy="32" r="28.4" fill="none" stroke="#231f20" stroke-miterlimit="10" stroke-width="5"/><circle cx="20.1" cy="17.7" r="4.2" fill="#231f20"/><circle cx="42.3" cy="17.7" r="4.2" fill="#231f20"/><path fill="none" stroke="#231f20" stroke-miterlimit="10" stroke-width="5" d="M16.7 44.1s15.8-22.9 30.6 0"/></symbol><symbol id="search" viewBox="0 0 64 64"><circle cx="25.2" cy="27" r="20.4" fill="none" stroke="#231f20" stroke-miterlimit="10" stroke-width="8"/><path fill="none" stroke="#231f20" stroke-miterlimit="10" stroke-width="8" d="M60.1 58.4L39.2 41.9"/></symbol><symbol id="sale" viewBox="0 0 64 64"><path fill="#fff100" stroke="#231f20" stroke-miterlimit="10" stroke-width="2.29" d="M38.7 11.9l-11.1 5-14.2 39 17 6.2 14.1-39.6-5.8-10.6z"/><circle cx="36.9" cy="17.6" r="1.1" fill="#231f20"/><path fill="none" stroke="#231f20" stroke-miterlimit="10" stroke-width="1.14" d="M37.3 10.5S41.2.8 46.8 2s-4.4 9.2-6.4 10"/><path fill="#231f20" d="M25.3 42l-.3.7a.9.9 0 0 0-1.1.5.6.6 0 0 0 0 .6.8.8 0 0 0 .5.5h.6l2.4-1a1.9 1.9 0 0 1 1.3 0h.3a1.6 1.6 0 0 1 .9.9 1.7 1.7 0 0 1 .1 1.2l-.3.8a2.1 2.1 0 0 1-.8 1 2 2 0 0 1-1.3-.1l.3-.7h.1a.6.6 0 0 0 .6 0c.1-.2.3-.3.3-.5a2 2 0 0 0 .1-.7 1.2 1.2 0 0 0-1.2-.3l-2.4.9a1.3 1.3 0 0 1-1.2 0h-.4a2 2 0 0 1-.9-.9 1.3 1.3 0 0 1 0-1.2l.3-.8q.5-1.3 2.1-.9zm5.8.5l-5.3-2a2 2 0 0 1-.9-.9 1.7 1.7 0 0 1 0-1.2l.6-1.5a1.4 1.4 0 0 1 .8-.9 2 2 0 0 1 1.3-.1l5.3 2.1-.6 1.5-3-1.2-.6 1.5 3 1.2zm-3.2-3l.6-1.5-1.5-.5a.6.6 0 0 0-.6 0 1 1 0 0 0-.5.4 1.3 1.3 0 0 0 .1.6 1 1 0 0 0 .4.5zm5.5-3.1l-6.8-2.6.6-1.5 6.1 2.3.8-2.2.8.3zm2.1-5.2l-6.8-2.7 1.4-3.7.8.2-.9 2.3 2.3.9.5-1.5.8.3-.6 1.5 2.3.8.9-2.2.7.3z"/></symbol><symbol id="shirt-black" viewBox="0 0 64 64"><path fill="none" stroke="#231f20" stroke-miterlimit="10" stroke-width="5.72" d="M22 7.7s9.5 18.7 19.5 0l18.7 11.9-7.1 13.9-5.5-3.9v26.7H16.4V29.6L10.6 32 3.8 20.1z"/></symbol><symbol id="shirt-white" viewBox="0 0 64 64"><path fill="none" stroke="#fff" stroke-miterlimit="10" stroke-width="5.72" d="M22 9.7s9.5 18.7 19.5 0l18.7 11.9-7.1 13.9-5.5-3.9v26.7H16.4V31.6L10.6 34 3.8 22.1z"/></symbol><symbol id="star" viewBox="0 0 64 64"><path fill="#fff100" stroke="#231f20" stroke-miterlimit="10" stroke-width="2.9" d="M32 3.9l8.6 17.5 19.3 2.8L46 37.8 49.2 57 32 47.9 14.8 57 18 37.8 4.1 24.2l19.3-2.8L32 3.9z"/><path fill="#ff6e00" d="M12 25.8l19.5 4.6L12 28.1v-2.3z"/><path fill="#ff6e00" d="M32.6 10.5l-1.2 19.9-1-19.5 2.2-.4zm18.9 17.6l-19.9 2.2 19.1-4.4.8 2.2zm-9.7 19.5L31.6 30.3l11.8 15.6-1.6 1.7zm-20.5.1l10.2-17.3L19.7 46l1.6 1.7z"/></symbol><symbol id="twitter-black" viewBox="0 0 64 64"><path fill="#231f20" d="M44 8.6a13.9 13.9 0 0 0-13.9 13.9c0 .4.1.9.1 1.3A34.2 34.2 0 0 1 6.8 11.4a1.7 1.7 0 0 0-1.2-.5 1.1 1.1 0 0 0-.9.6 13.6 13.6 0 0 0 .8 15.2l-1-.4a1.3 1.3 0 0 0-1.2 0 1.1 1.1 0 0 0-.6 1.1v.2a13.6 13.6 0 0 0 6 11.3h-.1a1.3 1.3 0 0 0-1.2.4 1.3 1.3 0 0 0-.3 1.2 13.9 13.9 0 0 0 9.6 9.1A23.9 23.9 0 0 1 4.5 53a14.2 14.2 0 0 1-2.9-.2 1.4 1.4 0 0 0-1.4.9 1.3 1.3 0 0 0 .6 1.5 36.5 36.5 0 0 0 20 5.9c11.9 0 21.3-5 27.5-12.2a38.2 38.2 0 0 0 9.6-25v-1a28 28 0 0 0 6-6.4 1.2 1.2 0 0 0 0-1.5 1.6 1.6 0 0 0-1.6-.4l-2.1.6a15.6 15.6 0 0 0 2.2-4 1.6 1.6 0 0 0-.5-1.4 1.4 1.4 0 0 0-1.4-.1 24.5 24.5 0 0 1-7.2 2.8A13.1 13.1 0 0 0 44 8.6zm0 2.6a11.4 11.4 0 0 1 8.2 3.5 1.4 1.4 0 0 0 1.2.4 19.2 19.2 0 0 0 4.8-1.5 9.8 9.8 0 0 1-3.3 3.1 1.3 1.3 0 0 0-.6 1.6 1.5 1.5 0 0 0 1.5.8l3.6-1a27.4 27.4 0 0 1-3.6 3.2 1.4 1.4 0 0 0-.5 1.1c0 .5.1 1 .1 1.5a35.7 35.7 0 0 1-9 23.3C40.6 53.9 32 58.5 20.8 58.5a33.5 33.5 0 0 1-14.3-3.1 27.2 27.2 0 0 0 14.4-5.5 1.2 1.2 0 0 0 .4-1.4 1.1 1.1 0 0 0-1.2-.8 11.7 11.7 0 0 1-9.6-6h.2a15.1 15.1 0 0 0 3.7-.6 1.2 1.2 0 0 0 .9-1.2 1.2 1.2 0 0 0-1-1.2 11.6 11.6 0 0 1-8.8-9.3 14.3 14.3 0 0 0 4.1.9 1.4 1.4 0 0 0 1.3-.9 1.2 1.2 0 0 0-.6-1.5 11.4 11.4 0 0 1-5-9.4 9.8 9.8 0 0 1 .9-4.1 36.6 36.6 0 0 0 25.4 12.2 1.5 1.5 0 0 0 1.1-.4 1.1 1.1 0 0 0 .3-1.1 11.5 11.5 0 0 1-.3-2.6A11.2 11.2 0 0 1 44 11.2z"/></symbol><symbol id="twitter-white" viewBox="0 0 64 64"><path fill="#fff" d="M43.8 8.4a13.9 13.9 0 0 0-13.9 13.9 6.8 6.8 0 0 0 .2 1.4A34.2 34.2 0 0 1 6.6 11.3a1.4 1.4 0 0 0-1.2-.6 1.3 1.3 0 0 0-.9.7 13.3 13.3 0 0 0 .9 15.1l-1-.3a1.5 1.5 0 0 0-1.3 0 1.3 1.3 0 0 0-.6 1v.2a13.9 13.9 0 0 0 6 11.4h-.1a1.3 1.3 0 0 0-1.2.3 1.2 1.2 0 0 0-.2 1.3 13.4 13.4 0 0 0 9.6 9 23.3 23.3 0 0 1-12.3 3.4H1.5a1.2 1.2 0 0 0-1.4.8 1.4 1.4 0 0 0 .5 1.6 37.3 37.3 0 0 0 20 5.8c12 0 21.3-4.9 27.6-12.1a38.8 38.8 0 0 0 9.5-25v-1.2a30.4 30.4 0 0 0 6.1-6.3 1.4 1.4 0 0 0-.1-1.6 1.4 1.4 0 0 0-1.5-.3L60 15a12.6 12.6 0 0 0 2.2-3.9 1.2 1.2 0 0 0-.4-1.4 1.2 1.2 0 0 0-1.5-.1 22.3 22.3 0 0 1-7.2 2.7 13.8 13.8 0 0 0-9.3-3.9zm0 2.6a11.5 11.5 0 0 1 8.3 3.6 1.6 1.6 0 0 0 1.2.4l4.8-1.5a11 11 0 0 1-3.4 3 1.4 1.4 0 0 0-.6 1.6 1.4 1.4 0 0 0 1.5.8 24.2 24.2 0 0 0 3.6-1 21.7 21.7 0 0 1-3.6 3.2 1.7 1.7 0 0 0-.5 1.2c0 .5.1 1 .1 1.5a35.9 35.9 0 0 1-9 23.3 33 33 0 0 1-25.6 11.3 35.4 35.4 0 0 1-14.3-3.1 26.6 26.6 0 0 0 14.4-5.5 1.4 1.4 0 0 0 .4-1.5 1.1 1.1 0 0 0-1.1-.8 11.3 11.3 0 0 1-9.7-6h.3a14.9 14.9 0 0 0 3.6-.5 1.2 1.2 0 0 0-.1-2.4 11.3 11.3 0 0 1-8.7-9.3 11 11 0 0 0 4 .8 1.2 1.2 0 0 0 1.3-.8 1.2 1.2 0 0 0-.5-1.5 11.3 11.3 0 0 1-5.1-9.4 13.6 13.6 0 0 1 .9-4.1 37.5 37.5 0 0 0 25.5 12.2 1.4 1.4 0 0 0 1-.5 1.1 1.1 0 0 0 .3-1.1 10.9 10.9 0 0 1-.3-2.6A11.4 11.4 0 0 1 43.8 11z"/></symbol></svg>