<svg height="64" viewBox="0 0 64 64" width="64" xmlns="http://www.w3.org/2000/svg"><g stroke="#231f20" stroke-miterlimit="10" stroke-width="1.23"><path d="m33 26.2-1.9-4.9-24.1.5 14.8 9.9 1.5-4.9z" fill="none"/><path d="m31.3 38.7-14.2 11.5 4.7-18.5 1.5-4.9 6.3.3-2.4 8z" fill="none"/><path d="m34 29.3-2.9-8-5.6.1 5.2-19.9 8.5 25z" fill="none"/><path d="m31.9 31.8 4.5 3.2 19.2-14.5-18.4.3 2 5.7z" fill="none"/><path d="m47.1 49-6.5-17.2-4.2 3.2-7.6-5.4-1.6 5.5z" fill="none"/><path d="m55.6 35.9-7.7-9.6-3.3 2.6 3.3 4.3-5.9 2.2 1.7 4.6z" fill="#231f20"/><path d="m45.5 7.2-10.7 4.5.9 3.8 5.8-1.3.2 6.5h4.1z" fill="#231f20"/><path d="m15.2 8.6 1.4 13 4.4-.1-.3-6.7 6.2 1.3 1-3.7z" fill="#231f20"/><path d="m15.4 27.4-8.1 9.9 12.2 3.5.7-4-5.1-2.2 2.9-5.5z" fill="#231f20"/><path d="m31.9 55.1 7.2-11.7-2.8-1.9-4.1 4.7-4.1-4.9-3.5 2.8z" fill="#231f20"/></g><path d="m7.4 57-.7-.3-.6-.4 1.1-1.4 1.3-1.6-1 .4-.9.6-.4-.2-.3-.3a4.3 4.3 0 0 1 .2-1.1 3.4 3.4 0 0 1 .1-1 13 13 0 0 0 -1 1.5l-.7 1.3-.5-.3-.6-.4a13.5 13.5 0 0 1 1.3-2.1 13.9 13.9 0 0 1 1.5-2.2h.7l.7.3v1.5a5.1 5.1 0 0 1 -.2 1.3 5.2 5.2 0 0 1 1.3-.6l1.2-.5.4.5.3.5-1.4 2z"/><path d="m13.1 53.8a1.4 1.4 0 0 1 .9 1.1 2.7 2.7 0 0 1 -.3 1.7l-.7.9-.9.8-1.1.3a2 2 0 0 1 -1.1-.3 1.3 1.3 0 0 1 -.9-1.2 2.8 2.8 0 0 1 .4-1.9 3.3 3.3 0 0 1 1.7-1.6 2.4 2.4 0 0 1 2 .2zm-2.5 3.8a.5.5 0 0 0 .6-.1 4.8 4.8 0 0 0 .9-1.3 2.8 2.8 0 0 0 .5-1.2.7.7 0 0 0 -.3-.6c-.2-.1-.4 0-.6.2a4.1 4.1 0 0 0 -.9 1.2 3.4 3.4 0 0 0 -.4 1.2.4.4 0 0 0 .2.6z"/><path d="m18.1 58.3a3.8 3.8 0 0 1 -1.5 1.6 4.2 4.2 0 0 1 -2.2.5l-.6-.3-.6-.3.6-1.9.6-1.6a.8.8 0 0 1 .2-.5.8.8 0 0 1 .2-.5h1l.8.2a3.7 3.7 0 0 1 1.5 1.1 2.5 2.5 0 0 1 0 1.7zm-2-2.1-.6 1.4-.6 1.4v.2c0 .1-.1.1-.1.2a2.2 2.2 0 0 0 1.2-.5 3.6 3.6 0 0 0 .8-1.2 1.4 1.4 0 0 0 0-.9.8.8 0 0 0 -.5-.5z"/><path d="m21.4 62.6-1.3-.2-1.9-.4c.1-.8.2-1.7.4-2.7s.3-1.9.4-2.6l2 .2 1.6.3c0 .2-.1.4-.1.6l-.3.5-.8-.2h-.9l-.2.3a1.3 1.3 0 0 1 -.1.6h1.5v.5a6.4 6.4 0 0 0 -.2.7l-.8-.2-.8-.2c0 .3-.1.5-.1.7a1.3 1.3 0 0 0 -.1.6h1.9v.5a6.4 6.4 0 0 1 -.2 1z"/><path d="m26.8 62.9-.6.4-.8.2a12.8 12.8 0 0 1 -.5-1.7 3.6 3.6 0 0 1 -.4-.9h-.2a4.3 4.3 0 0 1 -.2 1.1 2.9 2.9 0 0 1 -.2.9h-1.2c0-.3 0-.4.1-.5v-.4a11.1 11.1 0 0 0 .2-1.9 15.5 15.5 0 0 0 .1-2.2l.9-.4h1a2.6 2.6 0 0 1 1.4.6 1.3 1.3 0 0 1 .4 1.2 2 2 0 0 1 -.4.8 1.1 1.1 0 0 1 -.7.6l.6 1.1a11.2 11.2 0 0 0 .5 1.1zm-2.4-2.9a.9.9 0 0 0 .6-.4 3.3 3.3 0 0 0 .3-.6 1.5 1.5 0 0 0 -.1-.7.5.5 0 0 0 -.5-.3 7.5 7.5 0 0 1 -.2 1.1 1.9 1.9 0 0 1 -.1.9z"/><path d="m29 62.1v1.4h-1.2c-.1-1-.1-2-.2-2.9v-2.1h.1l.7-.2h.8l.7 1.2.6 1.4v-1.8a3.1 3.1 0 0 0 -.1-1.1l.8-.2h.7a1.9 1.9 0 0 0 .1.8v.8a11.5 11.5 0 0 0 -.1 1.9c0 .7-.1 1.3-.1 1.9h-1.4l-.7-1.7a7.5 7.5 0 0 0 -.7-1.2z"/><path d="m37.5 60a8.8 8.8 0 0 1 -.2 1.7 6.1 6.1 0 0 1 -.2 1.5l-.5.2-.6.2a19.6 19.6 0 0 1 -1.3-2.5 18.6 18.6 0 0 1 -1-2.5l.7-.3.9-.2a14.2 14.2 0 0 0 .5 1.6c.2.6.4 1.2.7 1.9s.1-.9.1-1.3v-1.7l.8-.3h.8c0 .1.1.2.1.4a3.9 3.9 0 0 0 .2.6l.3 1c.1.2.1.4.2.6a13.7 13.7 0 0 0 .2-1.9v-1.9h.8l.6.2a12.4 12.4 0 0 1 -.3 2.7 18.3 18.3 0 0 1 -.8 2.5h-1l-.4-1.1a12 12 0 0 1 -.6-1.4z"/><path d="m42.4 57.7a11.7 11.7 0 0 1 .5 2c.2.7.3 1.4.4 1.9l-.5.2-.6.2c-.3-1-.6-1.9-.8-2.7s-.5-1.5-.8-2.1l.4-.3.4-.2h.7l.2.5c0 .1.1.3.1.5z"/><path d="m47.6 58.9c.1.3.1.6.2.8v.6l-1.8.5-1.9.4c-.1-.2-.1-.4-.2-.6v-.5c.3-.6.5-1.2.7-1.7l.6-1.7-.9.2-1.2.3a2.5 2.5 0 0 1 -.2-.7v-.6l2.2-.3 1.5-.3v.3a.4.4 0 0 1 .1.3v.5a4.7 4.7 0 0 1 -.6 1.5 15.9 15.9 0 0 1 -.9 2l1.1-.4z"/><path d="m53.1 58.3a1 1 0 0 1 -.4.5l-.7.5-.5-.8-.6-.8-.7.3-.7.4v1.2h-.7l-.6-.2a18.5 18.5 0 0 0 .1-2.3 16.8 16.8 0 0 0 -.3-2.9l.7-.2h.6a8.1 8.1 0 0 1 2 1.8 27 27 0 0 1 1.8 2.5zm-3.8-2.7a1.9 1.9 0 0 0 .1.8v.9l.5-.2.4-.3-.5-.6z"/><path d="m57.3 55.4-.3.6-.6.7-1.3-1.1-.9-.6h-.1l.4 1a3.6 3.6 0 0 1 .4.9l-.6.3-.6.2c-.1-.2-.1-.4-.2-.5a.3.3 0 0 0 -.1-.2 16.2 16.2 0 0 0 -1-1.8l-1.1-1.9.5-.7a2.1 2.1 0 0 1 .8-.6 2.2 2.2 0 0 1 1.5-.3 1.1 1.1 0 0 1 1 .8 1.1 1.1 0 0 1 .2.8 2.2 2.2 0 0 1 -.3 1l1.1.5zm-3.6-1.1a.6.6 0 0 0 .3-.6.7.7 0 0 0 -.2-.6c-.1-.3-.2-.5-.4-.5a.6.6 0 0 0 -.6 0l.5 1z"/><path d="m59.8 50.5a2.8 2.8 0 0 1 .3 2.2 3.5 3.5 0 0 1 -1 2.1l-.5.3-.6.2-1.1-1.6-1-1.5c-.1-.1-.1-.3-.2-.5l-.3-.4.6-.8.7-.5a2.8 2.8 0 0 1 1.8-.5 2.1 2.1 0 0 1 1.3 1zm-2.8.4.6 1.3.8 1.3a.3.3 0 0 0 .1.2v.2a2.8 2.8 0 0 0 .3-1.3 2.4 2.4 0 0 0 -.4-1.3 1.3 1.3 0 0 0 -.7-.6.6.6 0 0 0 -.7.1z"/></svg>