<?xml version="1.0" encoding="utf-8"?>
<!-- Generator: Adobe Illustrator 23.0.2, SVG Export Plug-In . SVG Version: 6.00 Build 0)  -->
<svg version="1.1" id="Layer_1" xmlns="http://www.w3.org/2000/svg" xmlns:xlink="http://www.w3.org/1999/xlink" x="0px" y="0px"
	 viewBox="0 0 64 64" style="enable-background:new 0 0 64 64;" xml:space="preserve">
<style type="text/css">
	.st0{fill:#D93F87;stroke:#2A1B3C;stroke-miterlimit:10;}
	.st1{fill:#D93F87;}
	.st2{fill:#A93E97;stroke:#2A1B3C;stroke-width:1.23;stroke-miterlimit:10;}
	.st3{fill:#016D98;stroke:#2A1B3C;stroke-width:1.23;stroke-miterlimit:10;}
	.st4{fill:#AC2323;stroke:#2A1B3C;stroke-width:1.23;stroke-miterlimit:10;}
	.st5{fill:#DAD923;stroke:#2A1B3C;stroke-width:1.23;stroke-miterlimit:10;}
	.st6{fill:#0EAA4B;stroke:#2A1B3C;stroke-width:1.23;stroke-miterlimit:10;}
</style>
<path class="st0" d="M55.6,35.9l-7.7-9.6l-3.3,2.6l3.3,4.3L42,35.4l1.7,4.6L55.6,35.9z M45.5,7.2l-10.7,4.5l0.9,3.8l5.8-1.3l0.2,6.5
	h4.1C45.8,20.7,45.5,7.2,45.5,7.2z M15.2,8.6l1.4,13l4.4-0.1l-0.3-6.7l6.2,1.3l1-3.7C27.9,12.4,15.2,8.6,15.2,8.6z M15.4,27.4
	l-8.1,9.9l12.2,3.5l0.7-4l-5.1-2.2l2.9-5.5C18,29.1,15.4,27.4,15.4,27.4z M31.9,55.1l7.2-11.7l-2.8-1.9l-4.1,4.7l-4.1-4.9l-3.5,2.8
	C24.6,44.1,31.9,55.1,31.9,55.1z"/>
<path class="st1" d="M7.4,57l-0.7-0.3l-0.6-0.4l1.1-1.4l1.3-1.6l-1,0.4l-0.9,0.6l-0.4-0.2l-0.3-0.3c0-0.4,0.1-0.7,0.2-1.1
	c0-0.3,0-0.7,0.1-1c-0.4,0.5-0.7,1-1,1.5l-0.7,1.3L4,54.2l-0.6-0.4c0.4-0.7,0.8-1.4,1.3-2.1c0.4-0.8,0.9-1.5,1.5-2.2h0.7l0.7,0.3
	v1.5c0,0.4-0.1,0.9-0.2,1.3c0.4-0.3,0.8-0.5,1.3-0.6l1.2-0.5l0.4,0.5l0.3,0.5l-1.4,2L7.4,57z M13.1,53.8c0.5,0.2,0.8,0.6,0.9,1.1
	c0.1,0.6,0,1.2-0.3,1.7L13,57.5l-0.9,0.8L11,58.6c-0.4,0-0.8-0.1-1.1-0.3C9.4,58.1,9,57.7,9,57.1c-0.1-0.7,0-1.3,0.4-1.9
	c0.4-0.7,1-1.3,1.7-1.6C11.8,53.4,12.5,53.4,13.1,53.8z M10.6,57.6c0.2,0.1,0.4,0.1,0.6-0.1c0.4-0.4,0.7-0.8,0.9-1.3
	c0.3-0.4,0.4-0.8,0.5-1.2c0-0.2-0.1-0.5-0.3-0.6s-0.4,0-0.6,0.2c-0.4,0.3-0.7,0.7-0.9,1.2c-0.2,0.4-0.3,0.8-0.4,1.2
	C10.3,57.2,10.3,57.4,10.6,57.6C10.5,57.6,10.6,57.6,10.6,57.6z M18.1,58.3c-0.3,0.7-0.9,1.2-1.5,1.6c-0.7,0.4-1.4,0.5-2.2,0.5
	l-0.6-0.3l-0.6-0.3l0.6-1.9l0.6-1.6c0-0.2,0.1-0.4,0.2-0.5c0-0.2,0.1-0.4,0.2-0.5h1l0.8,0.2c0.6,0.2,1.1,0.6,1.5,1.1
	C18.3,57.1,18.3,57.8,18.1,58.3z M16.1,56.2l-0.6,1.4L14.9,59v0.2c0,0.1-0.1,0.1-0.1,0.2c0.4,0,0.9-0.2,1.2-0.5s0.6-0.8,0.8-1.2
	c0.1-0.3,0.1-0.6,0-0.9c-0.1-0.2-0.3-0.4-0.5-0.5C16.3,56.3,16.1,56.2,16.1,56.2z M21.4,62.6l-1.3-0.2L18.2,62
	c0.1-0.8,0.2-1.7,0.4-2.7s0.3-1.9,0.4-2.6l2,0.2l1.6,0.3c0,0.2-0.1,0.4-0.1,0.6l-0.3,0.5l-0.8-0.2h-0.9l-0.2,0.3
	c0,0.2,0,0.4-0.1,0.6h1.5v0.5c-0.1,0.2-0.1,0.5-0.2,0.7L20.7,60l-0.8-0.2c0,0.3-0.1,0.5-0.1,0.7c-0.1,0.2-0.1,0.4-0.1,0.6h1.9v0.5
	C21.6,61.9,21.5,62.3,21.4,62.6z M26.8,62.9l-0.6,0.4l-0.8,0.2c-0.2-0.6-0.4-1.1-0.5-1.7c-0.2-0.3-0.3-0.6-0.4-0.9h-0.2
	c0,0.4-0.1,0.7-0.2,1.1c0,0.3-0.1,0.6-0.2,0.9h-1.2c0-0.3,0-0.4,0.1-0.5V62c0.1-0.6,0.2-1.3,0.2-1.9c0.1-0.7,0.1-1.5,0.1-2.2
	l0.9-0.4h1c0.5,0.1,1,0.3,1.4,0.6c0.3,0.3,0.5,0.8,0.4,1.2c-0.1,0.3-0.2,0.6-0.4,0.8c-0.1,0.3-0.4,0.5-0.7,0.6l0.6,1.1
	C26.4,62.2,26.6,62.5,26.8,62.9L26.8,62.9z M24.4,60c0.2,0,0.5-0.2,0.6-0.4l0.3-0.6c0-0.2,0-0.5-0.1-0.7S24.9,58,24.7,58
	c0,0.4-0.1,0.7-0.2,1.1C24.5,59.4,24.5,59.7,24.4,60z M29,62.1v1.4h-1.2c-0.1-1-0.1-2-0.2-2.9v-2.1h0.1l0.7-0.2h0.8l0.7,1.2l0.6,1.4
	v-1.8c0-0.4,0-0.7-0.1-1.1l0.8-0.2h0.7c0,0.3,0,0.5,0.1,0.8v0.8c-0.1,0.6-0.1,1.3-0.1,1.9c0,0.7-0.1,1.3-0.1,1.9h-1.4l-0.7-1.7
	c-0.2-0.4-0.4-0.8-0.7-1.2C29,60.3,29,62.1,29,62.1z M37.5,60c0,0.6-0.1,1.1-0.2,1.7c0,0.5-0.1,1-0.2,1.5l-0.5,0.2L36,63.6
	c-0.5-0.8-0.9-1.6-1.3-2.5c-0.4-0.8-0.7-1.6-1-2.5l0.7-0.3l0.9-0.2c0.1,0.5,0.3,1.1,0.5,1.6c0.2,0.6,0.4,1.2,0.7,1.9
	s0.1-0.9,0.1-1.3v-1.7l0.8-0.3h0.8c0,0.1,0.1,0.2,0.1,0.4c0.1,0.2,0.1,0.4,0.2,0.6l0.3,1c0.1,0.2,0.1,0.4,0.2,0.6
	c0.1-0.6,0.2-1.3,0.2-1.9v-1.9H40l0.6,0.2c0,0.9-0.1,1.8-0.3,2.7s-0.5,1.7-0.8,2.5h-1l-0.4-1.1C37.9,60.9,37.7,60.5,37.5,60z
	 M42.4,57.7c0.2,0.7,0.4,1.3,0.5,2c0.2,0.7,0.3,1.4,0.4,1.9l-0.5,0.2L42.2,62c-0.3-1-0.6-1.9-0.8-2.7s-0.5-1.5-0.8-2.1l0.4-0.3
	l0.4-0.2h0.7l0.2,0.5C42.3,57.3,42.4,57.5,42.4,57.7z M47.6,58.9c0.1,0.3,0.1,0.6,0.2,0.8v0.6L46,60.8l-1.9,0.4
	C44,61,44,60.8,43.9,60.6v-0.5c0.3-0.6,0.5-1.2,0.7-1.7l0.6-1.7l-0.9,0.2l-1.2,0.3c-0.1-0.2-0.2-0.5-0.2-0.7v-0.6l2.2-0.3l1.5-0.3
	v0.3c0.1,0.1,0.1,0.2,0.1,0.3v0.5c-0.1,0.5-0.3,1-0.6,1.5c-0.3,0.7-0.6,1.4-0.9,2l1.1-0.4C46.3,59.5,47.6,58.9,47.6,58.9z
	 M53.1,58.3c-0.1,0.2-0.2,0.4-0.4,0.5L52,59.3l-0.5-0.8l-0.6-0.8L50.2,58l-0.7,0.4v1.2h-0.7l-0.6-0.2c0.1-0.8,0.1-1.5,0.1-2.3
	c0-1-0.1-1.9-0.3-2.9l0.7-0.2h0.6c0.8,0.5,1.4,1.1,2,1.8C51.9,56.6,52.5,57.4,53.1,58.3z M49.3,55.6c0,0.3,0,0.5,0.1,0.8v0.9
	l0.5-0.2l0.4-0.3l-0.5-0.6C49.8,56.2,49.3,55.6,49.3,55.6z M57.3,55.4L57,56l-0.6,0.7l-1.3-1.1L54.2,55h-0.1l0.4,1
	c0.2,0.3,0.3,0.6,0.4,0.9l-0.6,0.3l-0.6,0.2c-0.1-0.2-0.1-0.4-0.2-0.5c0-0.1,0-0.1-0.1-0.2c-0.3-0.6-0.6-1.2-1-1.8L51.3,53l0.5-0.7
	c0.2-0.3,0.5-0.5,0.8-0.6c0.4-0.3,1-0.4,1.5-0.3c0.5,0,0.9,0.3,1,0.8c0.2,0.2,0.2,0.5,0.2,0.8c0,0.4-0.1,0.7-0.3,1l1.1,0.5
	C56.1,54.5,57.3,55.4,57.3,55.4z M53.7,54.3c0.2-0.1,0.3-0.4,0.3-0.6c0-0.2,0-0.4-0.2-0.6c-0.1-0.3-0.2-0.5-0.4-0.5
	c-0.2-0.1-0.4-0.1-0.6,0l0.5,1C53.3,53.6,53.7,54.3,53.7,54.3z M59.8,50.5c0.4,0.7,0.5,1.5,0.3,2.2c-0.1,0.8-0.4,1.5-1,2.1l-0.5,0.3
	L58,55.3l-1.1-1.6l-1-1.5c-0.1-0.1-0.1-0.3-0.2-0.5l-0.3-0.4l0.6-0.8l0.7-0.5c0.5-0.4,1.2-0.5,1.8-0.5C59.1,49.6,59.5,50,59.8,50.5z
	 M57,50.9l0.6,1.3l0.8,1.3c0,0.1,0,0.1,0.1,0.2v0.2c0.2-0.4,0.3-0.8,0.3-1.3s-0.1-0.9-0.4-1.3c-0.2-0.3-0.4-0.5-0.7-0.6
	C57.5,50.6,57.2,50.6,57,50.9z"/>
<path class="st2" d="M33,26.2l-1.9-4.9L7,21.8l14.8,9.9l1.5-4.9L33,26.2z"/>
<path class="st3" d="M31.3,38.7L17.1,50.2l4.7-18.5l1.5-4.9l6.3,0.3l-2.4,8C27.2,35.1,31.3,38.7,31.3,38.7z"/>
<path class="st4" d="M34,29.3l-2.9-8l-5.6,0.1l5.2-19.9l8.5,25L34,29.3z"/>
<path class="st5" d="M31.9,31.8l4.5,3.2l19.2-14.5l-18.4,0.3l2,5.7C39.2,26.5,31.9,31.8,31.9,31.8z"/>
<path class="st6" d="M47.1,49l-6.5-17.2L36.4,35l-7.6-5.4l-1.6,5.5L47.1,49z"/>
</svg>
