<svg xmlns="http://www.w3.org/2000/svg" id="Layer_1" viewBox="0 0 16 16" width="16" height="16"><style>.st0{fill:#d93f87;stroke-width:.2799}.st0,.st1,.st2,.st3,.st4,.st5{stroke:#2a1b3c;stroke-miterlimit:10}.st1{fill:#a93e97}.st1,.st2,.st3,.st4,.st5{stroke-width:.3442}.st2{fill:#016d98}.st3{fill:#ac2323}.st4{fill:#dad923}.st5{fill:#0eaa4b}</style><path d="M14.8 10.2l-2.2-2.7-.9.7.9 1.2-1.6.7.5 1.3 3.3-1.2zm-2.8-8L9 3.4l.3 1.1 1.6-.4.1 1.8h1.1L12 2.2zm-8.5.4l.4 3.6h1.2L5 4.3l1.7.4.3-1c0-.1-3.5-1.1-3.5-1.1zm.1 5.2l-2.3 2.8 3.4 1 .2-1.1-1.4-.7.8-1.5-.7-.5zm4.6 7.8l2-3.3-.8-.5-1.1 1.3-1.1-1.4-1 .8c-.1 0 2 3.1 2 3.1z" class="st0"/><path d="M8.5 7.5l-.6-1.4-6.7.2L5.3 9l.4-1.4 2.8-.1z" class="st1"/><path d="M8 11l-4 3.2L5.3 9l.4-1.4 1.8.1-.6 2.3L8 11z" class="st2"/><path d="M8.8 8.3l-.9-2.2H6.3L7.8.5l2.4 7-1.4.8z" class="st3"/><path d="M8.2 9l1.3.9 5.4-4.1-5.2.2.6 1.6C10.2 7.6 8.2 9 8.2 9z" class="st4"/><path d="M12.4 13.9L10.6 9l-1.2.9-2.1-1.5-.4 1.6 5.5 3.9z" class="st5"/></svg>