<svg xmlns="http://www.w3.org/2000/svg" id="Layer_1" viewBox="0 0 64 64" width="64" height="64"><style>.st0{fill:#d93f87;stroke:#2a1b3c;stroke-miterlimit:10}.st1{fill:#8265a7}.st2{fill:#a93e97}.st2,.st3,.st4,.st5,.st6{stroke:#2a1b3c;stroke-width:1.23;stroke-miterlimit:10}.st3{fill:#016d98}.st4{fill:#ac2323}.st5{fill:#dad923}.st6{fill:#0eaa4b}</style><path d="M55.6 35.9l-7.7-9.6-3.3 2.6 3.3 4.3-5.9 2.2 1.7 4.6 11.9-4.1zM45.5 7.2l-10.7 4.5.9 3.8 5.8-1.3.2 6.5h4.1l-.3-13.5zM15.2 8.6l1.4 13 4.4-.1-.3-6.7 6.2 1.3 1-3.7-12.7-3.8zm.2 18.8l-8.1 9.9 12.2 3.5.7-4-5.1-2.2 2.9-5.5-2.6-1.7zm16.5 27.7l7.2-11.7-2.8-1.9-4.1 4.7-4.1-4.9-3.5 2.8 7.3 11z" class="st0"/><path d="M7.4 57l-.7-.3-.6-.4 1.1-1.4 1.3-1.6-1 .4-.9.6-.4-.2-.3-.3c0-.4.1-.7.2-1.1 0-.3 0-.7.1-1-.4.5-.7 1-1 1.5l-.7 1.3-.5-.3-.6-.4c.4-.7.8-1.4 1.3-2.1.4-.8.9-1.5 1.5-2.2h.7l.7.3v1.5c0 .4-.1.9-.2 1.3.4-.3.8-.5 1.3-.6l1.2-.5.4.5.3.5-1.4 2L7.4 57zm5.7-3.2c.5.2.8.6.9 1.1.1.6 0 1.2-.3 1.7l-.7.9-.9.8-1.1.3c-.4 0-.8-.1-1.1-.3-.5-.2-.9-.6-.9-1.2-.1-.7 0-1.3.4-1.9.4-.7 1-1.3 1.7-1.6.7-.2 1.4-.2 2 .2zm-2.5 3.8c.2.1.4.1.6-.1.4-.4.7-.8.9-1.3.3-.4.4-.8.5-1.2 0-.2-.1-.5-.3-.6s-.4 0-.6.2c-.4.3-.7.7-.9 1.2-.2.4-.3.8-.4 1.2-.1.2-.1.4.2.6-.1 0 0 0 0 0zm7.5.7c-.3.7-.9 1.2-1.5 1.6-.7.4-1.4.5-2.2.5l-.6-.3-.6-.3.6-1.9.6-1.6c0-.2.1-.4.2-.5 0-.2.1-.4.2-.5h1l.8.2c.6.2 1.1.6 1.5 1.1.2.5.2 1.2 0 1.7zm-2-2.1l-.6 1.4-.6 1.4v.2c0 .1-.1.1-.1.2.4 0 .9-.2 1.2-.5s.6-.8.8-1.2c.1-.3.1-.6 0-.9-.1-.2-.3-.4-.5-.5l-.2-.1zm5.3 6.4l-1.3-.2-1.9-.4c.1-.8.2-1.7.4-2.7s.3-1.9.4-2.6l2 .2 1.6.3c0 .2-.1.4-.1.6l-.3.5-.8-.2h-.9l-.2.3c0 .2 0 .4-.1.6h1.5v.5c-.1.2-.1.5-.2.7l-.8-.2-.8-.2c0 .3-.1.5-.1.7-.1.2-.1.4-.1.6h1.9v.5c0 .3-.1.7-.2 1zm5.4.3l-.6.4-.8.2c-.2-.6-.4-1.1-.5-1.7-.2-.3-.3-.6-.4-.9h-.2c0 .4-.1.7-.2 1.1 0 .3-.1.6-.2.9h-1.2c0-.3 0-.4.1-.5V62c.1-.6.2-1.3.2-1.9.1-.7.1-1.5.1-2.2l.9-.4h1c.5.1 1 .3 1.4.6.3.3.5.8.4 1.2-.1.3-.2.6-.4.8-.1.3-.4.5-.7.6l.6 1.1c.1.4.3.7.5 1.1zM24.4 60c.2 0 .5-.2.6-.4l.3-.6c0-.2 0-.5-.1-.7s-.3-.3-.5-.3c0 .4-.1.7-.2 1.1 0 .3 0 .6-.1.9zm4.6 2.1v1.4h-1.2c-.1-1-.1-2-.2-2.9v-2.1h.1l.7-.2h.8l.7 1.2.6 1.4v-1.8c0-.4 0-.7-.1-1.1l.8-.2h.7c0 .3 0 .5.1.8v.8c-.1.6-.1 1.3-.1 1.9 0 .7-.1 1.3-.1 1.9h-1.4l-.7-1.7c-.2-.4-.4-.8-.7-1.2v1.8zm8.5-2.1c0 .6-.1 1.1-.2 1.7 0 .5-.1 1-.2 1.5l-.5.2-.6.2c-.5-.8-.9-1.6-1.3-2.5-.4-.8-.7-1.6-1-2.5l.7-.3.9-.2c.1.5.3 1.1.5 1.6.2.6.4 1.2.7 1.9s.1-.9.1-1.3v-1.7l.8-.3h.8c0 .1.1.2.1.4.1.2.1.4.2.6l.3 1c.1.2.1.4.2.6.1-.6.2-1.3.2-1.9v-1.9h.8l.6.2c0 .9-.1 1.8-.3 2.7s-.5 1.7-.8 2.5h-1l-.4-1.1c-.2-.5-.4-.9-.6-1.4zm4.9-2.3c.2.7.4 1.3.5 2 .2.7.3 1.4.4 1.9l-.5.2-.6.2c-.3-1-.6-1.9-.8-2.7s-.5-1.5-.8-2.1l.4-.3.4-.2h.7l.2.5c0 .1.1.3.1.5zm5.2 1.2c.1.3.1.6.2.8v.6l-1.8.5-1.9.4c-.1-.2-.1-.4-.2-.6v-.5c.3-.6.5-1.2.7-1.7l.6-1.7-.9.2-1.2.3c-.1-.2-.2-.5-.2-.7v-.6l2.2-.3 1.5-.3v.3c.1.1.1.2.1.3v.5c-.1.5-.3 1-.6 1.5-.3.7-.6 1.4-.9 2l1.1-.4 1.3-.6zm5.5-.6c-.1.2-.2.4-.4.5l-.7.5-.5-.8-.6-.8-.7.3-.7.4v1.2h-.7l-.6-.2c.1-.8.1-1.5.1-2.3 0-1-.1-1.9-.3-2.9l.7-.2h.6c.8.5 1.4 1.1 2 1.8.6.8 1.2 1.6 1.8 2.5zm-3.8-2.7c0 .3 0 .5.1.8v.9l.5-.2.4-.3-.5-.6-.5-.6zm8-.2l-.3.6-.6.7-1.3-1.1-.9-.6h-.1l.4 1c.2.3.3.6.4.9l-.6.3-.6.2c-.1-.2-.1-.4-.2-.5 0-.1 0-.1-.1-.2-.3-.6-.6-1.2-1-1.8L51.3 53l.5-.7c.2-.3.5-.5.8-.6.4-.3 1-.4 1.5-.3.5 0 .9.3 1 .8.2.2.2.5.2.8 0 .4-.1.7-.3 1l1.1.5 1.2.9zm-3.6-1.1c.2-.1.3-.4.3-.6 0-.2 0-.4-.2-.6-.1-.3-.2-.5-.4-.5-.2-.1-.4-.1-.6 0l.5 1 .4.7zm6.1-3.8c.4.7.5 1.5.3 2.2-.1.8-.4 1.5-1 2.1l-.5.3-.6.2-1.1-1.6-1-1.5c-.1-.1-.1-.3-.2-.5l-.3-.4.6-.8.7-.5c.5-.4 1.2-.5 1.8-.5.6.1 1 .5 1.3 1zm-2.8.4l.6 1.3.8 1.3c0 .1 0 .1.1.2v.2c.2-.4.3-.8.3-1.3s-.1-.9-.4-1.3c-.2-.3-.4-.5-.7-.6-.2-.1-.5-.1-.7.2z" class="st1"/><path d="M33 26.2l-1.9-4.9-24.1.5 14.8 9.9 1.5-4.9 9.7-.6z" class="st2"/><path d="M31.3 38.7L17.1 50.2l4.7-18.5 1.5-4.9 6.3.3-2.4 8 4.1 3.6z" class="st3"/><path d="M34 29.3l-2.9-8-5.6.1 5.2-19.9 8.5 25-5.2 2.8z" class="st4"/><path d="M31.9 31.8l4.5 3.2 19.2-14.5-18.4.3 2 5.7-7.3 5.3z" class="st5"/><path d="M47.1 49l-6.5-17.2-4.2 3.2-7.6-5.4-1.6 5.5L47.1 49z" class="st6"/></svg>