<svg id="Layer_1" data-name="Layer 1" xmlns="http://www.w3.org/2000/svg" width="32" height="32" viewBox="0 0 32 32"><title>Artboard 1</title><polygon points="17 14.8 15.9 11.8 1.5 12.2 10.3 18.1 11.2 15.1 17 14.8" fill="none" stroke="#231f20" stroke-miterlimit="10" stroke-width="0.73"/><polygon points="16 22.2 7.5 29.1 10.3 18.1 11.2 15.1 15 15.3 13.6 20.1 16 22.2" fill="none" stroke="#231f20" stroke-miterlimit="10" stroke-width="0.73"/><polygon points="17.6 16.6 15.9 11.8 12.6 11.9 15.6 0 20.7 14.9 17.6 16.6" fill="none" stroke="#231f20" stroke-miterlimit="10" stroke-width="0.73"/><polygon points="16.4 18.1 19 20 30.5 11.4 19.5 11.5 20.7 14.9 16.4 18.1" fill="none" stroke="#231f20" stroke-miterlimit="10" stroke-width="0.73"/><polygon points="25.4 28.4 21.6 18.1 19 20 14.5 16.8 13.6 20.1 25.4 28.4" fill="none" stroke="#231f20" stroke-miterlimit="10" stroke-width="0.73"/><polygon points="30.5 20.5 25.9 14.9 23.9 16.4 25.9 18.9 22.4 20.3 23.4 23 30.5 20.5" fill="#231f20" stroke="#231f20" stroke-miterlimit="10" stroke-width="0.73"/><polygon points="24.5 3.4 18.1 6.1 18.6 8.4 22.1 7.6 22.2 11.5 24.6 11.5 24.5 3.4" fill="#231f20" stroke="#231f20" stroke-miterlimit="10" stroke-width="0.73"/><polygon points="6.4 4.2 7.2 12 9.8 12 9.7 8 13.4 8.7 13.9 6.5 6.4 4.2" fill="#231f20" stroke="#231f20" stroke-miterlimit="10" stroke-width="0.73"/><polygon points="6.5 15.5 1.7 21.4 8.9 23.5 9.4 21.1 6.4 19.8 8.1 16.5 6.5 15.5" fill="#231f20" stroke="#231f20" stroke-miterlimit="10" stroke-width="0.73"/><polygon points="16.4 32 20.6 25 19 23.9 16.5 26.7 14.1 23.8 12 25.5 16.4 32" fill="#231f20" stroke="#231f20" stroke-miterlimit="10" stroke-width="0.73"/></svg>