<svg id="Layer_1" data-name="Layer 1" xmlns="http://www.w3.org/2000/svg" width="16" height="16" viewBox="0 0 16 16"><title>Artboard 1</title><polygon points="8.5 7.4 7.9 5.9 0.7 6.1 5.2 9 5.6 7.6 8.5 7.4" fill="none" stroke="#231f20" stroke-miterlimit="10" stroke-width="0.37"/><polygon points="8 11.1 3.8 14.5 5.2 9 5.6 7.6 7.5 7.6 6.8 10.1 8 11.1" fill="none" stroke="#231f20" stroke-miterlimit="10" stroke-width="0.37"/><polygon points="8.8 8.3 7.9 5.9 6.3 6 7.8 0 10.3 7.5 8.8 8.3" fill="none" stroke="#231f20" stroke-miterlimit="10" stroke-width="0.37"/><polygon points="8.2 9.1 9.5 10 15.3 5.7 9.8 5.8 10.3 7.5 8.2 9.1" fill="none" stroke="#231f20" stroke-miterlimit="10" stroke-width="0.37"/><polygon points="12.7 14.2 10.8 9.1 9.5 10 7.3 8.4 6.8 10.1 12.7 14.2" fill="none" stroke="#231f20" stroke-miterlimit="10" stroke-width="0.37"/><polygon points="15.3 10.3 13 7.4 12 8.2 12.9 9.5 11.2 10.1 11.7 11.5 15.3 10.3" fill="#231f20" stroke="#231f20" stroke-miterlimit="10" stroke-width="0.37"/><polygon points="12.2 1.7 9 3.1 9.3 4.2 11 3.8 11.1 5.7 12.3 5.7 12.2 1.7" fill="#231f20" stroke="#231f20" stroke-miterlimit="10" stroke-width="0.37"/><polygon points="3.2 2.1 3.6 6 4.9 6 4.8 4 6.7 4.4 7 3.3 3.2 2.1" fill="#231f20" stroke="#231f20" stroke-miterlimit="10" stroke-width="0.37"/><polygon points="3.3 7.8 0.8 10.7 4.5 11.7 4.7 10.6 3.2 9.9 4 8.3 3.3 7.8" fill="#231f20" stroke="#231f20" stroke-miterlimit="10" stroke-width="0.37"/><polygon points="8.2 16 10.3 12.5 9.5 12 8.3 13.3 7.1 11.9 6 12.7 8.2 16" fill="#231f20" stroke="#231f20" stroke-miterlimit="10" stroke-width="0.37"/></svg>