<svg xmlns="http://www.w3.org/2000/svg" id="Layer_1" viewBox="0 0 32 32" width="32" height="32"><style>.st0{fill:#d93f87;stroke-width:.5597}.st0,.st1,.st2,.st3,.st4,.st5{stroke:#2a1b3c;stroke-miterlimit:10}.st1{fill:#a93e97}.st1,.st2,.st3,.st4,.st5{stroke-width:.6884}.st2{fill:#016d98}.st3{fill:#ac2323}.st4{fill:#dad923}.st5{fill:#0eaa4b}</style><path d="M29.7 20.3l-4.3-5.4-1.8 1.5 1.8 2.4-3.3 1.2 1 2.6 6.6-2.3zM24 4.2l-6 2.5.5 2.1 3.2-.7.1 3.6h2.3c.1 0-.1-7.5-.1-7.5zM7.1 5l.8 7.3 2.5-.1-.2-3.8 3.5.7.6-2.1c-.1.1-7.2-2-7.2-2zm.1 10.5L2.7 21l6.8 2 .4-2.2L7 19.5l1.6-3.1-1.4-.9zM16.4 31l4-6.5-1.6-1.1-2.2 2.6-2.3-2.7-2 1.6c0-.1 4.1 6.1 4.1 6.1z" class="st0"/><path d="M17 14.8l-1-2.7-13.5.3 8.3 5.5.8-2.7 5.4-.4z" class="st1"/><path d="M16.1 21.8l-7.9 6.4 2.6-10.4.8-2.7 3.5.2-1.3 4.5 2.3 2z" class="st2"/><path d="M17.6 16.6L16 12.1l-3.1.1L15.8 1l4.8 14-3 1.6z" class="st3"/><path d="M16.4 18l2.5 1.8 10.7-8.1-10.3.2 1.1 3.2c.1-.1-4 2.9-4 2.9z" class="st4"/><path d="M24.9 27.6L21.3 18l-2.4 1.8-4.3-3-.9 3.1 11.2 7.7z" class="st5"/></svg>