<svg id="Layer_1" data-name="Layer 1" xmlns="http://www.w3.org/2000/svg" width="64" height="64" viewBox="0 0 64 64"><title>Artboard 1</title><polygon points="33.9 26.2 32.1 21.3 8 21.8 22.8 31.7 24.3 26.8 33.9 26.2" fill="none" stroke="#231f20" stroke-miterlimit="10" stroke-width="1.23"/><polygon points="32.3 38.7 18.1 50.2 22.8 31.7 24.3 26.8 30.5 27.1 28.2 35.1 32.3 38.7" fill="none" stroke="#231f20" stroke-miterlimit="10" stroke-width="1.23"/><polygon points="35 29.3 32.1 21.3 26.5 21.4 31.7 1.5 40.2 26.5 35 29.3" fill="none" stroke="#231f20" stroke-miterlimit="10" stroke-width="1.23"/><polygon points="32.9 31.8 37.4 35 56.6 20.5 38.2 20.8 40.2 26.5 32.9 31.8" fill="none" stroke="#231f20" stroke-miterlimit="10" stroke-width="1.23"/><polygon points="48.1 49 41.6 31.8 37.4 35 29.8 29.6 28.2 35.1 48.1 49" fill="none" stroke="#231f20" stroke-miterlimit="10" stroke-width="1.23"/><polygon points="56.6 35.9 48.9 26.3 45.6 28.9 48.9 33.2 43 35.4 44.7 40 56.6 35.9" fill="#231f20" stroke="#231f20" stroke-miterlimit="10" stroke-width="1.23"/><polygon points="46.5 7.1 35.8 11.7 36.7 15.5 42.5 14.2 42.7 20.7 46.7 20.7 46.5 7.1" fill="#231f20" stroke="#231f20" stroke-miterlimit="10" stroke-width="1.23"/><polygon points="16.2 8.6 17.6 21.6 22 21.5 21.7 14.8 27.9 16.1 28.8 12.4 16.2 8.6" fill="#231f20" stroke="#231f20" stroke-miterlimit="10" stroke-width="1.23"/><polygon points="16.4 27.4 8.3 37.3 20.5 40.8 21.2 36.8 16.1 34.6 19 29.1 16.4 27.4" fill="#231f20" stroke="#231f20" stroke-miterlimit="10" stroke-width="1.23"/><polygon points="32.9 55.1 40.1 43.4 37.3 41.5 33.2 46.2 29.1 41.3 25.6 44.1 32.9 55.1" fill="#231f20" stroke="#231f20" stroke-miterlimit="10" stroke-width="1.23"/><path d="M8.4,57l-.7-.3L7,56.3l1.2-1.4,1.3-1.6-1,.4-.9.6-.4-.2-.4-.3A4.3,4.3,0,0,0,7,52.7c.1-.3.1-.7.2-1a13,13,0,0,0-1,1.5l-.7,1.3L5,54.2l-.7-.4,1.3-2.1,1.5-2.2h.8l.7.3v1.5c-.1.5-.1.9-.2,1.3a6.7,6.7,0,0,1,1.2-.6l1.3-.5.4.5.3.5-1.4,2Z"/><path d="M14.1,53.8a1.4,1.4,0,0,1,.9,1.1,2.3,2.3,0,0,1-.4,1.7,2.8,2.8,0,0,1-.7.9,3,3,0,0,1-.8.8,2.7,2.7,0,0,1-1.2.3l-1.1-.3a1.4,1.4,0,0,1-.8-1.2,2.8,2.8,0,0,1,.4-1.9A3.5,3.5,0,0,1,12,53.6,2.6,2.6,0,0,1,14.1,53.8Zm-2.5,3.8a.5.5,0,0,0,.6-.1,4.8,4.8,0,0,0,.9-1.3,5.1,5.1,0,0,0,.5-1.2.7.7,0,0,0-.3-.6c-.2-.1-.4,0-.7.2l-.8,1.1a4.6,4.6,0,0,0-.4,1.3A.4.4,0,0,0,11.6,57.6Z"/><path d="M19.1,58.3a4.5,4.5,0,0,1-1.5,1.6,4.4,4.4,0,0,1-2.2.5l-.7-.3-.5-.3.6-1.9a14.2,14.2,0,0,0,.5-1.6l.3-.5a.8.8,0,0,1,.2-.5h.9l.9.2a3.7,3.7,0,0,1,1.5,1.1A2.5,2.5,0,0,1,19.1,58.3Zm-2-2.1a9.1,9.1,0,0,0-.7,1.4,5.8,5.8,0,0,0-.5,1.4v.2c-.1.1-.1.1-.1.2a4.3,4.3,0,0,0,1.2-.5,3.6,3.6,0,0,0,.8-1.2,1.4,1.4,0,0,0,0-.9,1.2,1.2,0,0,0-.5-.5Z"/><path d="M22.4,62.6l-1.3-.2L19.2,62q.2-1.2.3-2.7c.2-1.1.4-1.9.5-2.6l2,.2,1.6.3a1.4,1.4,0,0,1-.2.6,1.7,1.7,0,0,1-.2.5l-.8-.2h-1a.4.4,0,0,1-.1.3c0,.2-.1.4-.1.6h1.5a.7.7,0,0,1-.1.5,2,2,0,0,1-.1.7l-.8-.2-.8-.2a2,2,0,0,0-.1.7c-.1.2-.1.4-.2.6h2a1.1,1.1,0,0,1-.1.5A1.5,1.5,0,0,1,22.4,62.6Z"/><path d="M27.8,62.9l-.7.4-.8.2a9.1,9.1,0,0,0-.5-1.7l-.3-.9h-.2c-.1.4-.1.7-.2,1.1s-.1.6-.2.9H23.7v-.5a.6.6,0,0,0,.1-.4c.1-.6.1-1.2.2-1.9s.1-1.4.1-2.2a1.9,1.9,0,0,1,.9-.4h1a2.6,2.6,0,0,1,1.4.6,1.6,1.6,0,0,1,.4,1.2,2,2,0,0,1-.4.8,1.2,1.2,0,0,1-.8.6,3,3,0,0,1,.6,1.1ZM25.4,60h0a.9.9,0,0,0,.6-.4,3.3,3.3,0,0,0,.3-.6,1.5,1.5,0,0,0-.1-.7.5.5,0,0,0-.5-.3h-.1a3.1,3.1,0,0,1-.1,1.1A1.9,1.9,0,0,1,25.4,60Z"/><path d="M30,62.1v1.4H28.8c-.1-1-.2-2-.2-2.9a16,16,0,0,1,0-2.2h.1l.7-.2h.7a8.3,8.3,0,0,1,.8,1.2l.6,1.4V59.1c0-.5-.1-.9-.1-1.1l.8-.2h.7v3.5a12.8,12.8,0,0,0-.1,1.9H31.4l-.7-1.7L30,60.3v1.8Z"/><path d="M38.5,60c-.1.6-.1,1.2-.2,1.7a6.1,6.1,0,0,1-.2,1.5l-.6.2-.6.2a19.2,19.2,0,0,1-1.2-2.5,18.6,18.6,0,0,1-1-2.5l.7-.3.8-.2c.2.5.3,1,.5,1.6s.5,1.2.8,1.9a5.7,5.7,0,0,1,.1-1.3V58.6l.8-.3h.8a.8.8,0,0,0,.1.4,3.9,3.9,0,0,0,.2.6l.3,1c.1.2.1.4.2.6a13.7,13.7,0,0,0,.2-1.9V57.1h.7l.7.2a24.8,24.8,0,0,1-.3,2.7,18.3,18.3,0,0,1-.8,2.5h-1a7,7,0,0,1-.4-1.1A12,12,0,0,1,38.5,60Z"/><path d="M43.4,57.7a11.7,11.7,0,0,1,.5,2c.2.7.3,1.4.4,1.9l-.5.2-.7.2c-.2-1-.5-1.9-.7-2.7l-.8-2.1.3-.3.5-.2h.7l.2.5C43.3,57.3,43.4,57.5,43.4,57.7Z"/><path d="M48.5,58.9a3.1,3.1,0,0,1,.2.8,1.3,1.3,0,0,1,.1.6l-1.9.5-1.8.4a1.4,1.4,0,0,1-.2-.6,4.3,4.3,0,0,0-.1-.5,8.5,8.5,0,0,0,.8-1.7,10.9,10.9,0,0,0,.5-1.7l-.8.2-1.3.3c0-.3-.1-.5-.1-.7v-.6l2.2-.3,1.5-.3v.3c0,.1.1.2.1.3v.5a4.7,4.7,0,0,1-.6,1.5,15.9,15.9,0,0,1-.9,2l1.1-.4A13.3,13.3,0,0,0,48.5,58.9Z"/><path d="M54.1,58.3a1,1,0,0,1-.4.5l-.8.5-.4-.8-.6-.8-.8.3-.6.4v1.2h-.7l-.6-.2c0-.8.1-1.6.1-2.3s-.1-1.8-.3-2.9l.6-.2h.7a7.9,7.9,0,0,1,1.9,1.8A16.4,16.4,0,0,1,54.1,58.3Zm-3.9-2.7a2.5,2.5,0,0,1,.1.8,2.8,2.8,0,0,1,.1.9l.5-.2.4-.3-.5-.6Z"/><path d="M58.3,55.4a2.1,2.1,0,0,1-.4.6l-.5.7-1.3-1.1-.9-.6c0,.1,0,.1-.1.1h0a10.4,10.4,0,0,0,.4,1,3.6,3.6,0,0,1,.4.9l-.6.3-.6.2c-.1-.2-.1-.4-.2-.5a.3.3,0,0,0-.1-.2,16.2,16.2,0,0,0-1-1.8l-1.1-1.9.5-.8.8-.5a2.2,2.2,0,0,1,1.5-.3,1.1,1.1,0,0,1,1,.8,1.1,1.1,0,0,1,.2.8,2.2,2.2,0,0,1-.3,1l1.1.5Zm-3.6-1.1h0a.6.6,0,0,0,.3-.6.7.7,0,0,0-.2-.6c-.1-.3-.3-.5-.4-.5a.6.6,0,0,0-.6,0h0l.5,1Z"/><path d="M60.8,50.5a4,4,0,0,1,.3,2.2,3.5,3.5,0,0,1-1,2.1l-.6.3-.5.2-1.2-1.6-.9-1.5-.3-.5a.8.8,0,0,0-.2-.4l.6-.8.7-.5a2.8,2.8,0,0,1,1.8-.5A2.1,2.1,0,0,1,60.8,50.5Zm-2.9.4c.2.4.5.8.7,1.3l.7,1.3c.1.1.1.2.2.2v.2a2.8,2.8,0,0,0,.3-1.3,3.8,3.8,0,0,0-.4-1.3,1.3,1.3,0,0,0-.7-.6.8.8,0,0,0-.8.1h0A.1.1,0,0,1,57.9,50.9Z"/></svg>